<?xml version="1.0" standalone="no"?><!DOCTYPE svg PUBLIC "-//W3C//DTD SVG 1.1//EN" "http://www.w3.org/Graphics/SVG/1.1/DTD/svg11.dtd"><svg t="1621422338876" class="icon" viewBox="0 0 1024 1024" version="1.1" xmlns="http://www.w3.org/2000/svg" p-id="1767" xmlns:xlink="http://www.w3.org/1999/xlink" width="200" height="200"><defs><style type="text/css"></style></defs><path d="M591.95850827 661.52849104a11.26766112 11.26766112 0 0 0-8.21876457-3.44657869 179.75233499 179.75233499 0 0 0-58.06159491 9.0141289 169.94284178 169.94284178 0 0 0-47.3241767 24.52373301 304.09428941 304.09428941 0 0 0-42.94967296 39.7682157 12.06302544 12.06302544 0 0 0-3.44657871 8.21876458 11.79790399 11.79790399 0 0 0 11.66534328 11.66534327 12.06302544 12.06302544 0 0 0 8.21876458-3.44657868q4.90474661-4.37450373 13.25607191-13.25607191l12.19558614-12.06302543a164.77297374 164.77297374 0 0 1 49.04746605-32.079694 155.62628413 155.62628413 0 0 1 57.2662306-9.54437177 11.79790399 11.79790399 0 0 0 11.66534329-11.66534327 11.26766112 11.26766112 0 0 0-3.314018-7.68852171z" fill="#459CFC" p-id="1768"></path><path d="M861.9846929 359.42261243a53.81965193 53.81965193 0 0 0 0-9.41181106v-137.86314777a61.77329506 61.77329506 0 0 0-123.14890795 0v47.19161597l-159.07286281-129.77694392a85.1039816 85.1039816 0 0 0-114.53246124 0l-180.68026002 145.81679092a308.07111099 308.07111099 0 0 1-107.77186455 470.19287033v101.8066322c0 68.93157389 47.05905525 112.01380756 117.31623634 112.01380757h455.47863052c63.49658441 0 115.59294698-33.00761904 117.31623633-112.01380757V602.27384965l115.7255077-41.35894434a66.2803595 66.2803595 0 0 0 0-102.20431436zM688.86039387 633.69074005a175.90807413 175.90807413 0 0 1-3.71170013 35.26115126 150.32385536 150.32385536 0 0 1-33.67042263 69.85949893A207.85520741 207.85520741 0 0 1 586.12583665 787.72629555a175.51039198 175.51039198 0 0 1-79.53643141 19.75154713 160.66359145 160.66359145 0 0 1-53.0242876-8.61644673q-2.78377509-0.92792503-16.039847-7.68852171a53.95221264 53.95221264 0 0 0-17.49801492-6.76059667q-2.91633582 0-7.15827883 5.83267164a128.98157961 128.98157961 0 0 0-8.21876457 13.2560719 62.56865938 62.56865938 0 0 1-9.54437177 13.2560719 15.90728628 15.90728628 0 0 1-11.00253967 5.83267163 19.75154713 19.75154713 0 0 1-9.27925033-1.98841077 17.10033275 17.10033275 0 0 1-5.70011094-4.37450374 77.81314206 77.81314206 0 0 1-4.90474659-7.6885217l-1.06048577-1.98841079-0.53024285-2.91633581a9.01412889 9.01412889 0 0 1 0-1.72328935 10.4722968 10.4722968 0 0 1 0-2.51865366 21.73995792 21.73995792 0 0 1 5.7001109-13.25607191 66.2803595 66.2803595 0 0 1 12.46070759-11.9304647 134.68169051 134.68169051 0 0 0 12.46070759-10.20717536q5.70011091-5.30242877 5.70011091-8.74900747a44.67296231 44.67296231 0 0 0-2.51865366-6.89315737 61.37561291 61.37561291 0 0 1-2.91633581-8.08620388 109.62771461 109.62771461 0 0 1-1.59072863-18.9561828 103.92760371 103.92760371 0 0 1 7.95364315-39.7682157 108.56722887 108.56722887 0 0 1 21.7399579-33.67042265 159.07286282 159.07286282 0 0 1 31.15176897-25.31909732A170.60564537 170.60564537 0 0 1 488.82626889 604.79250331a119.30464711 119.30464711 0 0 1 26.51214381-4.63962518q16.43752915-1.3256072 32.74249758-1.59072862t32.60993689-1.06048574a148.33544458 148.33544458 0 0 0 29.82616178-4.37450374 46.6613731 46.6613731 0 0 0 20.67947216-10.33973608l5.43498949-5.43498948 5.43498946-5.16986804q5.43498947-5.16986804 4.90474661-3.71170014t6.62803594-2.91633582q7.15827883-4.37450373 7.95364316-0.7953643a16.03984701 16.03984701 0 0 1 13.2560719 8.3513253 61.24305218 61.24305218 0 0 1 8.61644673 20.41435072q2.91633582 12.06302544 4.37450373 22.66788295a130.57230823 130.57230823 0 0 1 1.4581679 17.49801491z" fill="#1082FF" p-id="1769"></path><path d="M352.42128901 467.19447698a306.61294307 306.61294307 0 0 0-67.47340596-192.21304258L68.07854674 449.69646206a66.2803595 66.2803595 0 0 0 0 102.07175364l109.23003248 39.76821571v153.63787334a308.07111099 308.07111099 0 0 0 175.11270979-277.97982777z" fill="#01C700" p-id="1770"></path><path d="M352.42128901 467.19447698a306.61294307 306.61294307 0 0 0-67.47340596-192.21304258L68.07854674 449.69646206a66.2803595 66.2803595 0 0 0 0 102.07175364l109.23003248 39.76821571v153.63787334a308.07111099 308.07111099 0 0 0 175.11270979-277.97982777z" fill="#459CFC" p-id="1771"></path></svg>