<?xml version="1.0" standalone="no"?><!DOCTYPE svg PUBLIC "-//W3C//DTD SVG 1.1//EN" "http://www.w3.org/Graphics/SVG/1.1/DTD/svg11.dtd"><svg t="1623759964659" class="icon" viewBox="0 0 1437 1024" version="1.1" xmlns="http://www.w3.org/2000/svg" p-id="3177" width="70.166015625" height="50" xmlns:xlink="http://www.w3.org/1999/xlink"><defs><style type="text/css"></style></defs><path d="M912.126831 299.332907c-88.179399 0-159.895725 76.029304-159.895726 169.491954 0 41.307563 14.772985 81.434824 41.625071 112.971628l7.429878 8.751184-0.211014 0.985063 99.008189 112.759628 0.950551 1.056058c1.496822 1.743335 4.10295 4.049703 9.385214 4.454969l0.369768 0.018735c0.316522 0.034512 0.616281 0.070009 0.898291 0.087758 0.281024-0.017749 0.580783-0.053247 0.880541-0.070009l0.405267-0.035498c5.334525-0.40428 7.97615-2.746146 9.489735-4.489481l100.52276-114.626218-0.017749-0.123256 7.623144-8.963185c26.781089-31.55258 41.536326-71.592084 41.536326-112.777376 0.000986-93.46265-71.785349-169.491954-160.000246-169.491954z" p-id="3178" fill="#459CFC"></path><path d="M912.180077 0.000986c-278.818159 0-504.865936 226.030028-504.865936 504.865936 0 278.818159 226.048763 504.830438 504.865936 504.830438s504.848187-226.012279 504.848187-504.830438c0-278.835908-226.030028-504.865936-504.848187-504.865936z m162.236606 603.962869l-11.56734 13.082898c-0.493024 0.546271-0.9683 1.127054-1.461325 1.672339a68.986943 68.986943 0 0 1-3.644437 4.120698L958.118126 736.443476c-10.141513 11.656085-23.752933 18.681683-39.423223 20.355008-1.690088 0.439778-4.101964 0.916039-7.043348 0.916039-2.922649 0-5.35326-0.493024-6.972352-0.932802-11.761592-1.285808-22.624893-5.739791-31.55258-12.871883h-14.174454l-0.035498-14.771999-108.850929-123.941423 0.387517-1.848841c-29.457226-38.56043-45.550531-85.889794-45.550531-134.522714 0-119.556463 92.968639-216.839066 207.225089-216.839066 114.326459 0 207.312847 97.282603 207.312847 216.839066 0 48.403171-15.987798 95.539269-45.251759 134.029689l0.227778 1.109305z" p-id="3179" fill="#459CFC"></path></svg>