<?xml version="1.0" encoding="UTF-8"?>
<svg width="640px" height="640px" viewBox="0 0 640 640" version="1.1" xmlns="http://www.w3.org/2000/svg" xmlns:xlink="http://www.w3.org/1999/xlink">
  <title>页面飞走了</title>
  <defs>
    <linearGradient x1="50%" y1="0%" x2="50%" y2="65.785099%" id="linearGradient-1">
      <stop stop-color="#E6F1FD" offset="0%"></stop>
      <stop stop-color="#E6F1FD" stop-opacity="0" offset="100%"></stop>
    </linearGradient>
    <polygon id="path-2" points="0 0.729192975 166.730645 0.729192975 166.730645 207.89536 0 207.89536"></polygon>
    <polygon id="path-4" points="0 0.308577125 199.90303 0.308577125 199.90303 313.772884 0 313.772884"></polygon>
    <linearGradient x1="53.0912965%" y1="79.9792893%" x2="59.3115894%" y2="9.62868645%" id="linearGradient-6">
      <stop stop-color="#BCD4FF" offset="0%"></stop>
      <stop stop-color="#D7E6FD" offset="100%"></stop>
    </linearGradient>
    <linearGradient x1="50%" y1="0%" x2="50%" y2="100%" id="linearGradient-7">
      <stop stop-color="#69A0D8" offset="0%"></stop>
      <stop stop-color="#2A5CAD" offset="100%"></stop>
    </linearGradient>
    <linearGradient x1="28.8080689%" y1="14.8680796%" x2="92.2595807%" y2="85.1319204%" id="linearGradient-8">
      <stop stop-color="#B3E3E6" offset="0%"></stop>
      <stop stop-color="#73DAC3" offset="100%"></stop>
    </linearGradient>
    <linearGradient x1="41.9853788%" y1="8.8817842e-14%" x2="65.9822401%" y2="100%" id="linearGradient-9">
      <stop stop-color="#B3E3E6" offset="0%"></stop>
      <stop stop-color="#73DAC3" offset="100%"></stop>
    </linearGradient>
    <linearGradient x1="36.3477882%" y1="8.8817842e-14%" x2="77.2243594%" y2="100%" id="linearGradient-10">
      <stop stop-color="#B3E3E6" offset="0%"></stop>
      <stop stop-color="#73DAC3" offset="100%"></stop>
    </linearGradient>
    <linearGradient x1="50%" y1="32.7176305%" x2="50%" y2="100%" id="linearGradient-11">
      <stop stop-color="#A4E8E1" offset="0%"></stop>
      <stop stop-color="#7CCCB5" offset="100%"></stop>
    </linearGradient>
    <linearGradient x1="44.1558107%" y1="10.696298%" x2="53.3757934%" y2="50%" id="linearGradient-12">
      <stop stop-color="#9FE7EE" offset="0%"></stop>
      <stop stop-color="#83DCC8" offset="100%"></stop>
    </linearGradient>
    <linearGradient x1="46.5069773%" y1="8.8817842e-14%" x2="56.9655604%" y2="100%" id="linearGradient-13">
      <stop stop-color="#B3E3E6" offset="0%"></stop>
      <stop stop-color="#73DAC3" offset="100%"></stop>
    </linearGradient>
    <linearGradient x1="50%" y1="32.7176305%" x2="50%" y2="100%" id="linearGradient-14">
      <stop stop-color="#A4E8E1" offset="0%"></stop>
      <stop stop-color="#7CCCB5" offset="100%"></stop>
    </linearGradient>
    <linearGradient x1="50%" y1="32.7176305%" x2="50%" y2="100%" id="linearGradient-15">
      <stop stop-color="#A2EAD9" offset="0%"></stop>
      <stop stop-color="#8CD8DE" offset="100%"></stop>
    </linearGradient>
    <linearGradient x1="50%" y1="32.7176305%" x2="50%" y2="100%" id="linearGradient-16">
      <stop stop-color="#A2EAD9" offset="0%"></stop>
      <stop stop-color="#8CD8DE" offset="100%"></stop>
    </linearGradient>
    <linearGradient x1="70.0090733%" y1="7.50410797%" x2="33.2586661%" y2="79.7198639%" id="linearGradient-17">
      <stop stop-color="#156EC2" offset="0%"></stop>
      <stop stop-color="#0A2A55" offset="100%"></stop>
    </linearGradient>
    <linearGradient x1="52.8134277%" y1="21.0975567%" x2="52.8134277%" y2="74.818793%" id="linearGradient-18">
      <stop stop-color="#FAC3C9" offset="0%"></stop>
      <stop stop-color="#E6969F" offset="100%"></stop>
    </linearGradient>
    <linearGradient x1="46.3391003%" y1="50%" x2="53.6608997%" y2="43.6375996%" id="linearGradient-19">
      <stop stop-color="#003D87" offset="0%"></stop>
      <stop stop-color="#0050B3" offset="100%"></stop>
    </linearGradient>
    <linearGradient x1="56.8623799%" y1="42.6798603%" x2="50%" y2="55.0813622%" id="linearGradient-20">
      <stop stop-color="#146CDA" offset="0%"></stop>
      <stop stop-color="#0050B3" offset="100%"></stop>
    </linearGradient>
    <linearGradient x1="52.8134277%" y1="21.0975567%" x2="52.8134277%" y2="74.818793%" id="linearGradient-21">
      <stop stop-color="#FAC3C9" offset="0%"></stop>
      <stop stop-color="#E6969F" offset="100%"></stop>
    </linearGradient>
    <linearGradient x1="55.901224%" y1="46.197473%" x2="50%" y2="58.0033666%" id="linearGradient-22">
      <stop stop-color="#F2BE69" offset="0%"></stop>
      <stop stop-color="#DF8F3D" offset="100%"></stop>
    </linearGradient>
    <linearGradient x1="62.0205646%" y1="39.0845894%" x2="52.8134277%" y2="57.1256033%" id="linearGradient-23">
      <stop stop-color="#FAC3C9" offset="0%"></stop>
      <stop stop-color="#E6969F" offset="100%"></stop>
    </linearGradient>
    <linearGradient x1="68.3301507%" y1="32.7310689%" x2="52.3213474%" y2="66.0117867%" id="linearGradient-24">
      <stop stop-color="#FAC3C9" offset="0%"></stop>
      <stop stop-color="#E6969F" offset="100%"></stop>
    </linearGradient>
    <linearGradient x1="70.8041047%" y1="35.6232051%" x2="45.8494578%" y2="94.9445782%" id="linearGradient-25">
      <stop stop-color="#53A4FC" offset="0%"></stop>
      <stop stop-color="#1D7DE6" offset="100%"></stop>
    </linearGradient>
    <linearGradient x1="55.901224%" y1="46.5823809%" x2="50%" y2="57.1932319%" id="linearGradient-26">
      <stop stop-color="#F2BE69" offset="0%"></stop>
      <stop stop-color="#DF8F3D" offset="100%"></stop>
    </linearGradient>
  </defs>
  <g id="组件" stroke="none" stroke-width="1" fill="none" fill-rule="evenodd">
    <g id="插画组件" transform="translate(-124.000000, -10486.000000)">
      <g id="编组-11备份" transform="translate(124.000000, 10486.000000)">
        <rect id="矩形" fill-opacity="0" fill="#EFEFEF" x="0" y="0" width="640" height="640"></rect>
        <circle id="椭圆形" fill="url(#linearGradient-1)" cx="315" cy="327" r="280"></circle>
        <g id="编组" transform="translate(282.289378, 251.746622) rotate(-11.000000) translate(-282.289378, -251.746622) translate(177.289378, 86.746622)">
          <g transform="translate(10.019057, 121.168169)">
            <mask id="mask-3" fill="white">
              <use xlink:href="#path-2"></use>
            </mask>
            <g id="Clip-2"></g>
            <path d="M2.42419355,0.729192975 L9.86270229e-13,3.06801577 C9.86270229e-13,3.06801577 23.7031388,300.8094 151.920773,175.737082 L166.730645,117.930202 L67.8774194,63.8774085 L2.42419355,0.729192975 Z" id="Fill-1" fill="#8AB3FE" mask="url(#mask-3)"></path>
          </g>
          <g transform="translate(9.138946, 0.912916)">
            <mask id="mask-5" fill="white">
              <use xlink:href="#path-4"></use>
            </mask>
            <g id="Clip-4"></g>
            <path d="M-0.000537373759,122.91931 C-0.000537373759,122.91931 44.8701697,369.182459 87.5913818,292.809711 C87.5913818,292.809711 114.460069,338.009909 152.882291,295.667194 C152.882291,295.667194 181.900473,261.63716 199.902493,237.218662 C200.167028,237.47442 142.098266,192.67735 123.635989,10.0352493 C123.261236,8.52144692 123.327995,7.15117535 120.752475,5.94832705 C118.864954,5.02328559 117.225177,5.93881437 116.484809,6.69542491 C90.3806357,32.761785 51.5521869,71.5030802 -0.000537373759,122.91931 Z" id="Fill-3" fill="url(#linearGradient-6)" fill-rule="nonzero" mask="url(#mask-5)"></path>
          </g>
          <path d="M-5.00042982,63.4417049 L156.807323,63.7142881 C159.016459,63.7180096 160.8043,65.511885 160.800579,67.7210208 C160.799004,68.6556051 160.470227,69.5601355 159.871317,70.2776011 L149.862715,82.2674244 L149.862715,82.2674244 L-19.4982491,80.5688001 L-10.0254003,66.1475879 C-8.91408118,64.4557454 -7.02462101,63.438295 -5.00042982,63.4417049 Z" id="矩形" fill="url(#linearGradient-7)" fill-rule="nonzero" transform="translate(72.919925, 72.851832) rotate(-45.000000) translate(-72.919925, -72.851832) "></path>
          <ellipse id="Oval" fill="#F7A959" fill-rule="nonzero" transform="translate(23.216521, 121.340961) rotate(-40.000000) translate(-23.216521, -121.340961) " cx="23.2165215" cy="121.340961" rx="5.3103165" ry="5.30342986"></ellipse>
          <ellipse id="Oval" fill="#55CEB3" fill-rule="nonzero" transform="translate(37.701337, 109.191243) rotate(-40.000000) translate(-37.701337, -109.191243) " cx="37.7013371" cy="109.191243" rx="5.41154596" ry="5.41119912"></ellipse>
          <path d="M29.9613963,156.427339 C29.9613963,156.427339 63.3725074,155.905018 84.6586186,120.126039 C84.6586186,120.126039 104.058619,88.0033057 126.961396,92.9653539 C126.961396,92.9653539 104.328063,90.3537496 79.5391741,130.833617 C79.8086186,130.833617 60.4086186,157.210821 29.9613963,156.427339" id="Fill-5" fill="#F3F3FE"></path>
          <path d="M37.1063422,172.078373 C37.1063422,172.078373 70.5174533,171.556051 91.8035645,135.77698 C91.8035645,135.77698 111.203564,103.654165 134.106342,108.616226 C134.106342,108.616226 111.473009,106.004615 86.68412,146.484586 C86.9535645,146.223424 67.28412,172.861857 37.1063422,172.078373" id="Fill-7" fill="#F3F3FE"></path>
          <path d="M69.8034436,234.463301 C69.8034436,234.463301 103.214555,233.94098 124.500666,198.162 C124.500666,198.162 143.900666,166.039267 166.803444,171.001315 C166.803444,171.001315 144.17011,168.389711 119.381221,208.869578 C119.650666,208.869578 99.9812213,235.246782 69.8034436,234.463301" id="Fill-9" fill="#F3F3FE"></path>
          <path d="M47.2993947,193.40278 C47.2993947,193.40278 73.5574592,191.831696 88.9409718,167.218035 C88.9409718,167.218035 103.263552,145.222849 121.299395,147.579476 C121.299395,147.579476 103.528785,146.793934 85.4929431,174.287916 C85.4929431,174.287916 71.1703624,192.617238 47.2993947,193.40278" id="Fill-11" fill="#F3F3FE"></path>
          <path d="M79.0148688,255.597062 C79.0148688,255.597062 105.272933,254.025977 120.656446,229.412317 C120.656446,229.412317 134.979027,207.417131 153.014869,209.773758 C153.014869,209.773758 135.24426,208.988216 117.208417,236.482198 C117.208417,236.744046 102.885837,255.073367 79.0148688,255.597062" id="Fill-13" fill="#F3F3FE"></path>
          <path d="M57.4867782,212.383714 C57.4867782,212.383714 78.3262277,211.118464 90.775769,193.658011 C90.775769,193.658011 102.142741,177.968909 116.486778,179.48721 C116.486778,179.48721 102.413384,178.98111 87.7987048,198.719012 C87.7987048,198.719012 76.4317323,211.877614 57.4867782,212.383714" id="Fill-15" fill="#F3F3FE"></path>
          <path d="M89.3930613,273.596368 C89.3930613,273.596368 110.232511,272.331118 122.682052,254.870666 C122.682052,254.870666 134.049025,239.181564 148.393061,240.699864 C148.393061,240.699864 134.319667,240.193764 119.97563,259.931667 C119.704988,259.931667 108.338015,272.837218 89.3930613,273.596368" id="Fill-17" fill="#F3F3FE"></path>
        </g>
        <path d="M175,244.518319 C175,244.517805 175,244.516778 175,244.516264 C175,237.553506 169.383135,231.909553 162.454935,231.909553 C162.347616,231.909553 162.248473,231.938312 162.142177,231.94088 C160.701038,224.733157 154.370757,219.302842 146.774114,219.302842 C143.81569,219.302842 141.080081,220.174856 138.719066,221.605616 C136.118883,216.517328 130.90382,213 124.82076,213 C90.9375391,213 92.7314313,251.179621 116.694468,250.999364 C119.281318,250.99936 120.726931,250.99936 121.031306,250.999364 C132.870177,250.999502 148.768897,250.939588 168.727467,250.81962 C172.190801,250.819106 175,247.998157 175,244.518319 Z" id="Path" fill-opacity="0.5" fill="#FFFFFF" fill-rule="nonzero"></path>
        <path d="M507.845924,192.99924 C512.900281,192.99924 517,188.822223 517,183.669582 C517,183.668821 517,183.6673 517,183.66654 C517,173.356694 508.802799,164.99962 498.691849,164.99962 C498.535229,164.99962 498.390541,165.042204 498.235413,165.046006 C496.132228,154.373437 486.893876,146.3327 475.807405,146.3327 C471.48991,146.3327 467.497587,147.623902 464.051943,149.742447 C460.257261,142.208153 452.647012,137 443.768887,137 C432.681671,137 423.443318,145.040737 421.340879,155.713306 C421.185005,155.710264 421.041063,155.66692 420.884443,155.66692 C408.245196,155.66692 398,166.113643 398,178.99981 C398,179.001331 398,179.002852 398,179.004372 C398.001492,186.735616 404.147714,193 411.731113,193 L507.845924,193 L507.845924,192.99924 Z" id="Path" fill-opacity="0.9" fill="#FFFFFF" fill-rule="nonzero"></path>
        <g id="plant_11_" transform="translate(103.000000, 432.500000) rotate(-1.000000) translate(-103.000000, -432.500000) translate(22.000000, 338.000000)" fill-rule="nonzero">
          <path d="M25.2968146,49.30055 C25.1596546,49.30055 25.0260115,49.2445104 24.9369161,49.1387752 C19.9311618,43.1076391 19.4212079,38.0936756 19.8737188,34.9491106 C20.3684326,31.5137738 22.0530389,29.5375828 22.1245497,29.4551094 C22.2769497,29.2806463 22.5571313,29.2489257 22.7529067,29.3853241 C22.9475098,29.5217226 22.982679,29.7765444 22.830279,29.9520648 C22.8138667,29.9710972 21.207805,31.8690441 20.7552942,35.1013693 C20.3367803,38.0873315 20.8467342,42.8633907 25.6543684,48.6545079 C25.8020792,48.8332004 25.7622208,49.0859076 25.5641007,49.2201913 C25.4843838,49.2741162 25.3905992,49.30055 25.2968146,49.30055 Z" id="Path" fill="#D0E7FE"></path>
          <path d="M98.4950606,187.504586 C64.750933,147.462968 30.4681977,154.743856 30.4950606,142.089394 C30.5033468,138.213802 41.3592361,126.835238 57.1608044,131.689526 C72.9634065,136.542725 94.544927,152.40326 98.4950606,187.504586 Z" id="Path" fill="url(#linearGradient-8)"></path>
          <path d="M5.69382317,21.2221943 C37.3957532,-32.5982097 160.896253,19.8470826 98.7489073,187.928043 C98.7489073,187.928043 92.8566501,120.20757 57.9612545,94.4280034 C23.0658588,68.6484368 -11.9203314,51.1260166 5.69382317,21.2221943 Z" id="Path" fill="url(#linearGradient-9)"></path>
          <path d="M100.277218,188.10652 C129.978823,170.826233 159.967591,166.98833 161.181792,141.681273 C162.006865,124.487378 157.53711,112.10652 145.60944,112.10652 C138.950587,112.10652 111.459929,131.56493 100.277218,188.10652 Z" id="Path" fill="url(#linearGradient-10)"></path>
          <path d="M94.2582839,120.162676 C94.0855752,120.162676 93.9288396,120.036818 93.8879086,119.851734 C93.8679423,119.763951 91.8443552,111.050183 86.0171833,110.970861 C85.8065385,110.967688 85.6378231,110.784719 85.6407788,110.56156 C85.643813,110.339459 85.7975537,110.15649 86.0271664,110.162836 C92.4503332,110.250619 94.5438024,119.281674 94.6306559,119.665592 C94.6785751,119.882405 94.5517889,120.100276 94.3471341,120.151042 C94.3181829,120.158445 94.2882334,120.162676 94.2582839,120.162676 Z" id="Path" fill="#FFFFFF"></path>
          <path d="M98.5601937,141.006961 C98.5368271,141.006961 98.5134606,141.004767 98.4890319,141.00038 C98.2681116,140.959797 98.1215395,140.742622 98.1597757,140.515577 C98.207571,140.236979 99.3780234,133.670198 103.605247,132.033713 C103.817671,131.952547 104.049212,132.062231 104.127809,132.279405 C104.206405,132.49658 104.100194,132.737885 103.889895,132.819051 C100.098138,134.287719 98.9701707,140.598936 98.9584874,140.662553 C98.9244997,140.863275 98.7534989,141.006961 98.5601937,141.006961 Z" id="Path" fill="#FFFFFF"></path>
          <path d="M83.1976193,79.7526094 C83.0336092,79.7526094 82.879001,79.644103 82.8215452,79.4713786 C76.8315205,61.5899708 59.2448328,64.8053026 59.0693315,64.8429477 C58.8551782,64.8794855 58.6441588,64.7333341 58.6044621,64.5030348 C58.5637208,64.2727356 58.7068379,64.0524012 58.9241251,64.0103273 C59.1079836,63.9760039 77.3538456,60.6178423 83.5747381,79.1879334 C83.6478636,79.4082678 83.53922,79.6496391 83.3323792,79.7282508 C83.2874593,79.744859 83.2425393,79.7526094 83.1976193,79.7526094 Z" id="Path" fill="#FFFFFF"></path>
          <path d="M88.0484447,94.1245974 C87.8958065,94.1245974 87.7567161,94.0060882 87.7151696,93.82515 C85.8528033,85.713619 87.476729,79.9966086 89.1674902,76.6296778 C91.0045674,72.9707064 93.2607221,71.25973 93.3555565,71.187778 C93.5163233,71.0682106 93.7294749,71.1232328 93.8315347,71.3115777 C93.9344977,71.4999227 93.8875321,71.7496385 93.7267653,71.8692058 C93.6382532,71.9358672 84.9469093,78.6591477 88.3817198,93.6156427 C88.4313949,93.8314987 88.3221096,94.0526454 88.13786,94.1108418 C88.1080549,94.1193068 88.0782498,94.1245974 88.0484447,94.1245974 Z" id="Path" fill="#FFFFFF"></path>
          <path d="M99.3803598,188.767114 C99.2289411,188.767114 99.0889307,188.677893 99.0225553,188.5317 C82.9566137,153.422811 43.6748628,142.176701 43.2797222,142.067056 C43.0681508,142.007934 42.9426599,141.78327 42.9986641,141.56398 C43.0546683,141.344691 43.2672768,141.211397 43.4840337,141.272669 C43.8771002,141.382314 82.4349451,152.418809 99.055743,186.730087 C99.3191701,179.823543 99.9507728,151.553476 94.3959873,120.668058 C88.5321416,88.0627238 74.376565,45.7882284 40.2440879,29.551133 C40.0449619,29.4565375 39.9578443,29.2125242 40.0491103,29.0072091 C40.1393393,28.800819 40.3789128,28.7094484 40.5738903,28.8051188 C59.5873115,37.8497345 84.4936175,61.1051681 95.1779717,120.53369 C101.5583,156.019886 99.7941685,188.060873 99.7755005,188.380133 C99.7651293,188.567174 99.6334158,188.723041 99.4550321,188.758514 C99.4311785,188.764964 99.4052506,188.767114 99.3803598,188.767114 Z" id="Path" fill="#FFFFFF"></path>
          <path d="M98.241603,187.462878 C98.1246445,187.462878 98.008721,187.40887 97.9310937,187.305176 C97.7955046,187.125871 97.8244855,186.866634 97.9963007,186.725134 C136.498421,154.950306 143.995151,125.073304 144.066569,124.775182 C144.119355,124.553751 144.339817,124.420892 144.545788,124.4749 C144.757969,124.529988 144.887348,124.753579 144.833527,124.97501 C144.762109,125.275292 137.220873,155.40721 98.4858704,187.373225 C98.4134182,187.433714 98.3275106,187.462878 98.241603,187.462878 Z" id="Path" fill="#FFFFFF"></path>
          <path d="M64.0452639,151.325766 C63.9860365,151.325766 63.9259508,151.306851 63.8718736,151.267031 C58.8512821,147.62149 60.7053559,141.633524 60.72424,141.573794 C60.7869008,141.37768 60.9748833,141.276138 61.1456985,141.349805 C61.3156552,141.422477 61.401492,141.641488 61.3396895,141.838599 C61.268445,142.060596 59.6607227,147.311888 64.2203708,150.622939 C64.3740186,150.734435 64.4203705,150.969375 64.3242333,151.146575 C64.2615725,151.262053 64.1551349,151.325766 64.0452639,151.325766 Z" id="Path" fill="#FFFFFF"></path>
          <path d="M79.0737312,162.992881 C78.9732779,162.992881 78.8717671,162.9538 78.7935192,162.876724 C72.5527223,156.720383 63.9740057,156.82677 63.8904708,156.825685 C63.888356,156.825685 63.8851838,156.825685 63.8820116,156.825685 C63.6620716,156.825685 63.4833704,156.645478 63.478009,156.418591 C63.4738538,156.189533 63.6504402,156.000642 63.8735524,155.995214 C64.2383567,155.980016 72.8604268,155.871457 79.3539432,162.277482 C79.5146686,162.435977 79.5199556,162.698688 79.3655747,162.863697 C79.2862694,162.950543 79.180529,162.992881 79.0737312,162.992881 Z" id="Path" fill="#FFFFFF"></path>
          <path d="M131.21142,152.282946 C131.129207,152.282946 131.046993,152.257108 130.977814,152.203444 C130.810379,152.075245 130.780301,151.835743 130.909637,151.670775 C137.972969,142.634297 130.974806,132.984653 130.903621,132.888256 C130.778296,132.719313 130.815392,132.480805 130.985835,132.356582 C131.156277,132.232359 131.395899,132.269129 131.522227,132.438072 C131.597422,132.539438 138.929452,142.651191 131.516211,152.135866 C131.439011,152.232263 131.325717,152.282946 131.21142,152.282946 Z" id="Path" fill="#FFFFFF"></path>
          <path d="M116.5092,171.786083 C116.400189,171.786083 116.291179,171.744937 116.211025,171.663647 C116.057128,171.509098 116.065677,171.266234 116.23133,171.12172 C127.056482,161.630969 134.40506,161.776487 134.708579,161.787526 C134.93408,161.795555 135.109352,161.973186 135.100802,162.184939 C135.093321,162.395689 134.910568,162.558267 134.678654,162.554253 C134.613462,162.553249 127.334352,162.435832 116.788138,171.682715 C116.709052,171.750958 116.608592,171.786083 116.5092,171.786083 Z" id="Path" fill="#FFFFFF"></path>
        </g>
        <path d="M197,531.335728 C197,531.335103 197,531.333854 197,531.333229 C197,522.864427 188.802799,515.999688 178.691849,515.999688 C178.535229,515.999688 178.390541,516.034667 178.235413,516.03779 C176.132228,507.271037 166.893876,500.666146 155.807405,500.666146 C151.48991,500.666146 147.497587,501.726776 144.051943,503.46701 C140.257261,497.278126 132.647012,493 123.768887,493 C112.681671,493 103.443318,499.604891 101.340879,508.371644 C101.185005,508.369146 101.041063,508.333542 100.884443,508.333542 C88.2451961,508.333542 78,516.914778 78,527.499844 C78.0014916,533.854256 84.1477143,539 91.7311135,539 L187.845924,539 C192.900281,538.999375 197,535.568255 197,531.335728 Z" id="Path备份-3" fill="url(#linearGradient-11)" fill-rule="nonzero"></path>
        <g id="plant_25_" transform="translate(471.000000, 320.000000)" fill-rule="nonzero">
          <g id="Group" transform="translate(0.000000, 51.000000)">
            <path d="M5.57901994,102.44313 C1.62274644,92.6767693 -4.27794872,78.839147 7.78321368,70.6686272 C19.8443761,62.4981073 8.83335613,57.6592557 8.44203989,45.8164348 C8.05072365,33.9736139 20.3617094,30.9300836 19.9936068,25.3143094 C19.6255043,19.6985352 19.0142108,9.76885714 20.1505755,5.53194564 C22.051886,-1.55834843 36.2840798,-4.77802787 37.7365926,15.1863178 C38.6496638,27.7314021 39.875567,35.3058146 46.2162165,44.2544237 C52.5568661,53.2030328 38.5910769,62.6637575 38.8486382,69.8683735 C39.1061994,77.0729895 45.9885014,76.0055958 45.2357151,91.2722425 C44.4829288,106.538889 34.9741652,118.08424 25.9329915,117.404141 C19.7924217,116.939854 9.19040456,111.357909 5.57901994,102.44313 Z" id="Path" fill="url(#linearGradient-12)"></path>
            <path d="M36.0718405,50.8267693 C35.7999088,50.6832836 35.4671795,50.7987721 35.3290028,51.084577 C35.2228832,51.3062216 32.7113846,56.4157129 28.6147236,54.7463791 C29.1,51.3633826 29.3188718,48.1950314 29.086735,45.335816 C29.0922621,45.3159847 29.1044217,45.299653 29.1077379,45.2786551 C29.1331624,45.1456683 29.1055271,45.0173477 29.0513618,44.9053589 C29.0016182,44.399076 28.9408205,43.8997923 28.8601254,43.4133408 C27.6165356,35.9684153 28.4522279,26.332708 28.9507692,20.5769477 C29.2425983,17.2184488 29.3741425,15.5736125 29.2061197,14.8771819 C29.1309516,14.5633798 28.8247521,14.3732321 28.5351339,14.4560571 C28.2388832,14.534216 28.0598063,14.8526843 28.1360798,15.1641533 C28.2643077,15.6972669 28.0719658,17.9090467 27.8508832,20.4696251 C27.3468148,26.2848794 26.5033846,36.0174105 27.7723989,43.6163206 C27.8132991,43.8589631 27.8409345,44.1097714 27.8729915,44.3582467 C26.1043305,43.7726383 21.8893903,41.9353213 20.4910427,37.3776084 C20.398188,37.0719721 20.087567,36.9039889 19.7946325,37.0031456 C19.5039088,37.1023024 19.3458348,37.4312697 19.4397949,37.7380725 C21.1454473,43.2966857 26.4116353,45.1713324 28.0012194,45.6192878 C28.4511225,51.7238467 26.7686838,59.407915 24.9900741,67.5014425 C23.5784615,73.9244697 22.1182108,80.5656418 21.6417778,86.8451833 C21.4328547,89.5959094 21.5290256,92.8260878 21.810906,96.272078 C18.7975499,94.7112334 10.5832251,89.8665491 10.3665641,83.3163679 C10.3566154,82.9955666 10.0868946,82.7727554 9.79506553,82.7540906 C9.48997151,82.7657561 9.25120228,83.0352293 9.26225641,83.3583638 C9.51981766,91.1532544 19.4243191,96.42023 21.9236581,97.6264432 C22.739453,106.283415 24.647396,116.113936 26.0590085,123.392045 C27.0638291,128.566863 27.9315783,133.035918 27.7569231,133.910831 C27.6939145,134.226966 27.885151,134.536102 28.1836125,134.602595 C28.222302,134.611928 28.259886,134.615427 28.2985755,134.615427 C28.5539259,134.615427 28.7838519,134.427613 28.8391225,134.152307 C29.0513618,133.089579 28.4035897,129.652921 27.1434188,123.158734 C25.7494929,115.977449 23.8725014,106.296247 23.0500741,97.7710955 C23.1097664,97.715101 23.1716695,97.6579401 23.2048319,97.5739484 C23.3131624,97.3021422 23.2026211,97.0011721 22.9682735,96.8553533 C22.6653903,93.4245282 22.5493219,90.2130146 22.7184501,87.4552892 C24.5921254,87.3293017 30.9084558,86.4473895 32.6207407,80.2903359 C32.706963,79.9812 32.5389402,79.656899 32.2460057,79.5670746 C31.9530712,79.4784167 31.6468718,79.6533993 31.5595442,79.9625352 C30.060604,85.3543317 24.6319202,86.1744167 22.8057778,86.2910718 C23.3231111,80.2868362 24.7137208,73.9268028 26.0678519,67.7662495 C26.9676581,63.6704906 27.8431453,59.6797213 28.4378575,55.9234286 C29.0546781,56.1474063 29.6482849,56.2547289 30.2142564,56.2547289 C33.2265071,56.2547289 35.4494929,53.4293436 36.3172422,51.6141909 C36.453208,51.3225533 36.3437721,50.9714216 36.0718405,50.8267693 Z" id="Path" fill="#FFFFFF"></path>
          </g>
          <g id="Group" transform="translate(51.000000, 0.000000)">
            <path d="M60.3767192,143.371125 C65.9522269,129.7164 74.2694054,110.368912 57.2708249,98.945025 C40.271134,87.519975 55.7906114,80.7553875 56.342499,64.1967375 C56.8943865,47.6380875 39.5415764,43.382175 40.0612613,35.53065 C40.5798357,27.679125 41.4415354,13.7953875 39.8402842,7.8712875 C37.1596875,-2.0425125 17.1007407,-6.5437125 15.054204,21.3702375 C13.7683172,38.9100375 12.0393657,49.5004125 3.1036734,62.0124 C-5.83201886,74.5243875 13.8516,87.752475 13.4873764,97.824375 C13.1231529,107.896275 3.4245899,106.404787 4.48505791,127.750612 C5.54552593,149.096437 18.9473987,165.238912 31.6907818,164.286825 C40.3444229,163.640475 55.2864727,155.836612 60.3767192,143.371125 Z" id="Path" fill="url(#linearGradient-13)"></path>
            <path d="M54.9637059,116.674313 C54.9744397,116.353463 54.7345852,116.083763 54.4281044,116.072138 C54.1338384,116.098875 53.8651125,116.312775 53.8540081,116.632463 C53.534202,126.198675 41.153932,133.165538 37.2252034,135.139463 C37.6627158,130.230225 37.8215084,125.584875 37.5150276,121.577738 C36.8454337,112.814813 34.788903,103.5369 32.8012195,94.564725 C30.2738633,83.1594375 27.8853118,72.3342375 28.5660101,63.735225 C30.5581354,63.2028 38.1990572,60.6825 40.6286949,52.82865 C40.7230822,52.5229125 40.5631791,52.1950875 40.2722444,52.096275 C39.9801993,51.9963 39.6670559,52.166025 39.5726687,52.4694375 C37.480604,59.2282125 30.9734391,61.7833875 28.6837165,62.4878625 C28.7403488,62.0124 28.799202,61.5392625 28.8769327,61.0789125 C30.6602956,50.4862125 29.4732377,36.89775 28.763668,28.7800125 C28.4360889,25.0274625 28.1773569,22.066575 28.3672418,21.2818875 C28.4427515,20.9703375 28.2628606,20.6541375 27.9663737,20.57625 C27.6732182,20.4937125 27.3667374,20.6843625 27.292338,20.9959125 C27.0646983,21.9294 27.2623562,24.3439125 27.6587825,28.8858 C28.3628,36.946575 29.5420848,50.4373875 27.784262,60.8778 C27.6698869,61.5567 27.5854936,62.256525 27.515536,62.96565 C27.4389158,63.088875 27.4056027,63.242325 27.4355845,63.3981 C27.4422471,63.4341375 27.4600141,63.4632 27.472229,63.49575 C27.1357663,67.54125 27.4577933,72.0378 28.1629212,76.8447375 C28.157369,76.8470625 28.1518168,76.8459 28.1473751,76.848225 C22.1021522,79.4440875 18.4021737,71.9878125 18.2478229,71.67045 C18.1090182,71.3833125 17.773666,71.268225 17.5016088,71.4135375 C17.2273306,71.55885 17.1185077,71.9087625 17.256202,72.1947375 C17.2928465,72.2691375 20.3987407,78.5605875 25.6422276,78.5605875 C26.4861603,78.5605875 27.3889461,78.387375 28.3405912,78.0084 C29.1767508,83.3338125 30.4293246,89.00565 31.7196532,94.829775 C33.6484835,103.535738 35.6317253,112.527675 36.3457367,121.012763 C34.0415785,120.860475 25.7388357,119.82585 23.5457212,111.9999 C23.4602175,111.693 23.1515158,111.5163 22.8561394,111.605813 C22.560763,111.695325 22.3930869,112.0185 22.479701,112.326563 C24.9248848,121.046475 34.1481805,122.069475 36.4334613,122.18805 C36.6977455,126.194025 36.5211859,130.811475 36.0614646,135.698625 C36.0570229,135.70095 36.0425872,135.706763 36.0403663,135.707925 C35.7583152,135.83115 35.6239522,136.1706 35.7416586,136.467038 C35.788297,136.583288 35.867138,136.671638 35.9615253,136.73325 C34.7922343,148.298963 32.1516135,161.170163 30.1883596,170.7294 C28.4294263,179.295863 27.5244195,183.831938 27.8131333,185.271113 C27.8686552,185.545463 28.0985158,185.732625 28.3561374,185.732625 C28.3938923,185.732625 28.4327576,185.729138 28.4716229,185.719838 C28.7714411,185.653575 28.9635468,185.345513 28.9002519,185.031638 C28.6459616,183.768 29.8641118,177.838088 31.2743677,170.973525 C33.2642721,161.288738 35.9470896,148.216425 37.1052761,136.4868 C40.359969,134.946488 54.5991118,127.5867 54.9637059,116.674313 Z" id="Path" fill="#FFFFFF"></path>
          </g>
        </g>
        <path d="M625.891413,523.086544 C626.828315,520.984296 627.215176,518.632697 626.882402,516.168727 C626.078427,510.21468 620.977724,505.313808 614.406581,504.122014 C611.534456,503.601168 608.793424,503.828372 606.313661,504.566579 C603.145431,497.255872 595.213856,492.07038 585.923682,492.07038 C585.341557,492.07038 584.765848,492.096627 584.194724,492.136818 C579.336038,487.732185 572.587965,485 565.125758,485 C554.426565,485 545.195063,490.612832 540.899251,498.724903 C533.445294,498.915196 527.126253,503.114772 524.534648,509.007302 C524.303631,508.995819 524.075365,508.976133 523.841598,508.976133 C516.748833,508.976133 511,514.119794 511,520.466731 C511,521.658524 511.203515,522.807666 511.581209,523.888729 C512.01574,525.135478 513.284499,526 514.743938,526 L620.968557,526 C623.113712,526 625.097523,524.869724 625.891413,523.086544" id="Fill-1" fill="url(#linearGradient-14)" fill-rule="nonzero"></path>
        <path d="M433,539 L580.20873,539 C579.985864,528.748549 573.281321,524.557686 560.0951,526.427412 C562.670333,510.027723 540.093846,501.235961 529.236659,510.027723 C519.918574,490.382585 497.144489,501.235961 497.144489,510.027723 C489.05642,499.692126 471.337746,505.390497 470.441475,516.875474 C457.011999,509.402632 447.408548,518.902386 447.408548,526.870975 C437.802849,526.575267 433,530.618275 433,539 Z" id="路径-19" fill="url(#linearGradient-15)" fill-rule="nonzero" transform="translate(506.604365, 519.000000) scale(-1, 1) translate(-506.604365, -519.000000) "></path>
        <path d="M115,543 L262.20873,543 C261.985864,534.286267 255.281321,530.724033 242.0951,532.3133 C244.670333,518.373565 222.093846,510.900567 211.236659,518.373565 C201.918574,501.675197 179.144489,510.900567 179.144489,518.373565 C171.05642,509.588308 153.337746,514.431923 152.441475,524.194153 C139.011999,517.842237 129.408548,525.917028 129.408548,532.690329 C119.802849,532.438977 115,535.875534 115,543 Z" id="路径-19" fill="url(#linearGradient-16)" fill-rule="nonzero"></path>
        <g id="man_10_" transform="translate(417.000000, 433.000000) scale(-1, 1) translate(-417.000000, -433.000000) translate(377.000000, 324.000000)">
          <path d="M42.591815,33.7946698 C43.8078693,36.3280975 43.2115726,37.7076399 43.5097209,38.7752445 C43.8078693,39.8428492 44.9496308,41.9989175 44.9985076,43.0210115 C45.0464068,44.0431055 43.9271286,44.1824819 43.6856773,45.5193581 C43.444226,46.8552861 44.0786466,48.5960695 43.2389436,49.996471 C42.3992405,51.3968724 39.1391595,51.073557 39.3307564,52.4246552 C39.5233309,53.7757535 41.5771331,58.7914094 41.5771331,58.7914094 L28.1721881,59 C28.1721881,59 28.7069001,51.6993288 28.0255578,48.681402 C27.3442155,45.6634752 25.8329456,34.5778327 28.6159893,33.2333714 C31.399033,31.8889101 41.3014681,31.1047991 42.591815,33.7946698 Z" id="Path" fill="#FAC3C9" fill-rule="nonzero"></path>
          <path d="M21.8327577,28.2422125 C17.6135063,29.0158235 15.9024434,38.2367308 21.8327577,42.7869878 C21.2968686,46.6425242 25.0374668,52.0240395 28.6221593,52 C32.2068518,51.9756362 35.2483587,51.641063 36.141505,50.1725073 C38.261214,46.6874707 36.4460502,41.8761842 37.8663297,40.2159515 C39.885455,37.8558073 43.6372917,39.8077865 43.0067807,31.6770026 C47.2986427,29.3099954 46.6850625,22.5547027 43.0067807,21.2636585 C40.4162323,20.5247688 36.141505,21.2636585 34.0612098,24.4404925 C31.4112156,21.3928543 21.8327577,24.4404925 21.8327577,28.2422125 Z" id="Path" fill="url(#linearGradient-17)" fill-rule="nonzero"></path>
          <polygon id="Path" fill="#FAC3C9" fill-rule="nonzero" transform="translate(18.666379, 203.890506) rotate(2.000000) translate(-18.666379, -203.890506) " points="22.2239201 199.073723 22.2198575 210.006095 15.1088377 210.008709 15.1133848 197.772303"></polygon>
          <polygon id="路径-16" fill="url(#linearGradient-18)" transform="translate(18.730174, 202.247458) rotate(179.000000) translate(-18.730174, -202.247458) " points="15.1344344 203.021616 22.2691504 204.005346 22.3259137 200.753375 15.2775213 200.489569"></polygon>
          <path d="M16.3691141,113 C16.3691141,113 16.4670429,126.422973 16.6629005,153.268918 C14.2209668,183.089639 13,198 13,198 C13,198 17.7822437,198 27.346731,198 C27.346731,198 31.5213624,177.294645 34.5883226,155.159238 C37.6552828,133.023832 34.7694018,117.851413 34.7694018,114.343569 C34.7694018,113.120658 20.7797799,113 16.3691141,113 Z" id="Path" fill="url(#linearGradient-19)" fill-rule="nonzero"></path>
          <path d="M54.3064352,107 C55.5627328,111.486053 58.1272544,126.447551 62,151.884495 C62.4751453,182.628165 62.712718,198 62.712718,198 C62.712718,198 58.1716162,198 49.0894125,198 C49.0894125,198 47.6776772,183.83979 44.8542066,155.519369 C34.3302756,131.093915 29.0457793,117.751777 29.0007176,115.492956 C28.8656071,108.721176 47.8476776,107.421152 54.3064352,107 Z" id="Path" fill="url(#linearGradient-20)" fill-rule="nonzero"></path>
          <polygon id="Path" fill="#FAC3C9" fill-rule="nonzero" transform="translate(55.110646, 205.984405) rotate(3.000000) translate(-55.110646, -205.984405) " points="58.6691427 201.16624 58.6630551 212.098789 51.5521493 212.102707 51.5589631 199.866102"></polygon>
          <polygon id="路径-16" fill="url(#linearGradient-21)" transform="translate(55.216866, 203.914395) rotate(179.000000) translate(-55.216866, -203.914395) " points="51.5605849 205.1148 58.6489574 205.238528 58.8731471 202.590263 51.7396995 202.737088"></polygon>
          <path d="M48.4356728,201.606084 C49.5012936,202.642135 54.779729,203.004707 56.2824341,203.251126 C57.2842375,203.415406 59.2728664,203.418296 62.2483207,203.259796 C62.7951587,200.303792 63.0812666,198.447095 63.1066444,197.689706 C63.1447111,196.553621 59.6152556,195.997799 58.165121,196.117315 C57.1047161,196.204767 49.3539129,194.584038 48.9141164,195.311161 C48.4743185,196.037295 48.433332,199.946353 48.4356728,201.606084 Z" id="Path" fill="url(#linearGradient-22)" transform="translate(55.771311, 199.249765) rotate(-8.000000) translate(-55.771311, -199.249765) "></path>
          <path d="M54,110 C46.0820872,116.666667 38.0241154,120 29.8260848,120 C21.6280542,120 16.6860259,117.480273 15,112.440818 L54,110 Z" id="路径-33" fill="#FFFFFF"></path>
          <path d="M48.740726,209.483421 C49.7305134,208.471336 66.9666822,212.241475 66.9641867,215.607669 C66.9637038,216.2589 55.3435997,216.069977 50.2701976,215.791799 C48.8533085,215.71411 47.947037,215.629459 47.9470928,215.554204 C47.9475491,214.938708 47.7509386,210.495506 48.740726,209.483421 Z" id="Path" fill="#DC8042" fill-rule="nonzero" transform="translate(57.447837, 212.682149) rotate(4.000000) translate(-57.447837, -212.682149) "></path>
          <polygon id="矩形备份-15" fill="#FFFFFF" transform="translate(60.852951, 213.246377) rotate(17.000000) translate(-60.852951, -213.246377) " points="60.502833 212.012232 61.3104509 212.10138 61.2835394 214.477903 60.3954515 214.480523"></polygon>
          <polygon id="矩形备份-17" fill="#FFFFFF" transform="translate(59.054453, 212.453871) rotate(17.000000) translate(-59.054453, -212.453871) " points="58.6322241 211.308993 59.5175767 211.366408 59.4794166 213.596128 58.5913287 213.598748"></polygon>
          <path d="M66.6634995,215.263704 L47.8132714,214.576396 L47.7822322,214.814743 C47.639592,215.910064 48.4118922,216.91363 49.5072129,217.05627 C49.5926281,217.067393 49.6786728,217.072987 49.7648092,217.073016 L64.8471238,217.078119 C65.8496556,217.078458 66.6627563,216.266235 66.6634995,215.263704 L66.6634995,215.263704 L66.6634995,215.263704 Z" id="路径-32" fill="#AC561D" transform="translate(57.075872, 215.827565) rotate(4.000000) translate(-57.075872, -215.827565) "></path>
          <path d="M15,77.8607762 C15,77.8607762 10.2697007,84.3234534 10.2697007,91.2487976 C10.2697007,95.8656937 10.6031595,103.869729 11.2700773,115.260904 C12.5474828,117.938445 13.2905722,119.679842 13.4993457,120.485097 C14.003375,122.429174 13.1861855,123.167446 12.1753448,122.15041 C11.2700773,121.407016 11.7881474,126.515057 10.2697007,126.844501 C7.06808753,127.539127 6.50309744,125.771057 5.72613801,124.22301 C4.35421404,122.610397 4.93194616,117.991147 4.93194616,117.991147 C4.93194616,117.991147 1.24735172,99.3205599 0.0963935978,91.0683126 C-1.05456452,82.8160652 8.48141675,69 8.48141675,69 L15,77.8607762 Z" id="Path" fill="#FAC3C9" fill-rule="nonzero"></path>
          <polygon id="路径-16" fill="url(#linearGradient-23)" transform="translate(6.572163, 82.793602) rotate(179.000000) translate(-6.572163, -82.793602) " points="1.00181486 82.6951934 10.3170621 86.5095813 12.1425561 81.9499931 2.25631374 79.0776687"></polygon>
          <path d="M55,53.5693043 C55,53.5693043 61.7161344,50.7821892 65.3790363,39.3538989 C69.0419382,27.9256086 73.983903,16.1375417 72.6503268,12.750549 C70.5375089,7.38624951 72.0567967,5.48767057 72.6503268,3.28556332 C73.1010737,1.61548369 73.3683449,1.11923539 73.8239091,1.02182488 C74.2335528,0.934233241 73.9214367,4.34766999 74.5073265,3.28556332 C77.1140942,-1.4400106 77.4778915,0.0323955373 78.6869252,1.02182488 C80.1733272,2.23824237 80.1834361,6.87223657 79.7577563,8.53366822 C78.9533177,11.3605332 78.1479459,11.1788196 78.014495,13.1870365 C77.8839905,15.1509146 75.7530899,32.1187941 74.1030965,40.8661027 C74.0763849,41.007712 74.042404,41.1293884 74.0098285,41.2482594 C72.5344023,46.6331657 67.8891238,62.123023 63.7316134,64.6810642 C59.5741031,67.2391054 55,53.5693043 55,53.5693043 Z" id="Path" fill="#FAC3C9" fill-rule="nonzero"></path>
          <path d="M57.5126476,52.5087644 C63.5040251,58.567559 67.2124453,61.5834347 68.6379082,61.5563916 C69.0223663,59.2266972 69.0305603,56.0179413 68.6624904,51.9301239 L58.2904825,48.9844236 L57.5126476,52.5087644 Z" id="路径-16备份" fill="url(#linearGradient-24)" transform="translate(63.222589, 55.270498) rotate(26.000000) translate(-63.222589, -55.270498) "></path>
          <path d="M36.7311892,56.6336051 C33.5799264,56.6001814 18.1087451,55.2609009 11.5006197,61.4366523 C4.89249437,67.6124037 0.40652327,77.7452501 0,78.9809734 C0.995881652,79.570575 5.32921499,81.7486585 13,85.5152239 L16.3153992,77.2466524 C13.7199691,87.2804172 13.3186483,98.8022596 15.1114366,111.81218 C23.147696,113.76731 37.1294989,113.308859 57.0568453,110.436827 C56.1829926,93.2405106 54.6197159,80.1399044 52.3670152,71.1350082 C58.8957717,72.9850248 66.0842258,65.9641757 67.5,64.2019601 C67.7037332,61.2167431 59.7199713,48.9214353 58.8957717,49.0004439 C56.8622121,50.029895 48.9014206,56.3241968 45.0691606,56.4273329 C41.2369007,56.530469 38.968482,56.6574792 36.7311892,56.6336051 Z" id="Path" fill="url(#linearGradient-25)" fill-rule="nonzero"></path>
          <path d="M13,199.276736 C14.0694395,200.272319 19.6223689,200.64743 21.132387,200.882477 C22.1390658,201.039174 24.1378494,201.039174 27.1287379,200.882477 C27.6827313,198.036916 27.9730405,196.24967 27.9996655,195.520739 C28.039603,194.427342 24.4929373,193.897367 23.0352183,194.014414 C21.9692672,194.100059 13.9404189,192.475378 13.4973027,193.175761 C13.0541866,193.875193 13,197.679449 13,199.276736 Z" id="Path" fill="url(#linearGradient-26)"></path>
          <path d="M12.394196,208.248396 C13.3839834,207.236311 30.0083039,210.939481 30.0058083,214.305676 C30.0051907,215.138781 11.6003072,214.663898 11.6005628,214.319178 C11.6010191,213.703682 11.4044087,209.260481 12.394196,208.248396 Z" id="Path" fill="#DC8042" fill-rule="nonzero" transform="translate(20.795383, 211.424258) rotate(4.000000) translate(-20.795383, -211.424258) "></path>
          <polygon id="矩形备份-15" fill="#FFFFFF" transform="translate(22.656260, 211.318312) rotate(17.000000) translate(-22.656260, -211.318312) " points="22.3061415 210.084167 23.1137594 210.173314 23.0868479 212.549837 22.1987601 212.552457"></polygon>
          <polygon id="矩形备份-17" fill="#FFFFFF" transform="translate(25.187940, 212.297722) rotate(17.000000) translate(-25.187940, -212.297722) " points="24.8317271 211.201911 25.677715 211.320631 25.601448 213.393534 24.6981652 213.381234"></polygon>
          <path d="M39.2800572,52.5308311 C38.7844291,51.7862918 37.3577433,51.2760147 35,51 L40,56 C39.3032017,54.0530531 39.0632207,52.8966635 39.2800572,52.5308311 Z" id="路径-10" fill="#E6969F" fill-rule="nonzero"></path>
          <path d="M29.7694624,214.297353 L11.3482549,213.495874 L11.348068,213.748029 C11.3472614,214.835979 12.2162534,215.72502 13.303939,215.749025 L27.9535284,216.072335 C28.9345516,216.093986 29.7473795,215.316261 29.7690303,214.335238 C29.769309,214.322611 29.769453,214.309982 29.7694624,214.297353 L29.7694624,214.297353 L29.7694624,214.297353 Z" id="路径-32" fill="#AC561D" transform="translate(20.558039, 214.804128) rotate(4.000000) translate(-20.558039, -214.804128) "></path>
        </g>
        <path d="M217,400 C230.617258,414.699428 279.036004,433.736126 335.006408,437.031408 C332.413357,437.031408 278.752139,432.762219 255.869651,423.415563 C232.987164,414.068908 224.786671,408.340641 217,400 Z" id="路径-34" fill="#E5EAF7" transform="translate(276.003204, 418.515704) rotate(7.000000) translate(-276.003204, -418.515704) "></path>
        <path d="M246,429 C259.617258,441.305292 308.036004,457.24143 364.006408,460 C361.413357,460 307.752139,456.426145 284.869651,448.601806 C261.987164,440.777466 253.786671,435.982178 246,429 Z" id="路径-34备份" fill="#E5EAF7" transform="translate(305.003204, 444.500000) rotate(1.000000) translate(-305.003204, -444.500000) "></path>
      </g>
    </g>
  </g>
</svg>
