<?xml version="1.0" standalone="no"?><!DOCTYPE svg PUBLIC "-//W3C//DTD SVG 1.1//EN" "http://www.w3.org/Graphics/SVG/1.1/DTD/svg11.dtd"><svg t="1621259606565" class="icon" viewBox="0 0 1024 1024" version="1.1" xmlns="http://www.w3.org/2000/svg" p-id="1464" width="100" height="100" xmlns:xlink="http://www.w3.org/1999/xlink"><defs><style type="text/css"></style></defs><path d="M512 1024C229.230021 1024 0 794.769979 0 512S229.230021 0 512 0s512 229.230021 512 512-229.230021 512-512 512zM259.757887 240.000268c-10.911933 0-19.757618 8.910088-19.757619 19.902524v213.618852c0 10.992436 8.844612 19.902524 19.757619 19.902524h211.408771c10.913006 0 19.758692-8.910088 19.758692-19.902524V259.902792c0-10.992436-8.845686-19.902524-19.758692-19.902524H259.757887z m46.557652 47.020277h118.294541c10.911933 0 19.757618 8.911161 19.757618 19.902524v119.578298c0 10.991363-8.845686 19.902524-19.757618 19.902524H306.315539c-10.913006 0-19.757618-8.911161-19.757619-19.902524V306.923069c0-10.991363 8.844612-19.902524 19.757619-19.902524z m37.486557 37.861166c-10.91086 0-19.757618 8.910088-19.757618 19.902524v43.855966c0 10.991363 8.846759 19.902524 19.757618 19.902524h43.320353c10.911933 0 19.757618-8.910088 19.757618-19.902524v-43.855966c0-10.991363-8.845686-19.902524-19.757618-19.902524H343.802096z m-84.044209 205.694121c-10.911933 0-19.757618 8.910088-19.757619 19.902524v213.618852c0 10.992436 8.844612 19.902524 19.757619 19.902524h211.408771c10.913006 0 19.758692-8.910088 19.758692-19.902524V550.478356c0-10.992436-8.845686-19.902524-19.758692-19.902524H259.757887z m46.557652 47.020277h118.294541c10.911933 0 19.757618 8.911161 19.757618 19.902524v119.578298c0 10.991363-8.845686 19.902524-19.757618 19.902524H306.315539c-10.913006 0-19.757618-8.911161-19.757619-19.902524V597.498633c0-10.991363 8.844612-19.902524 19.757619-19.902524z m37.486557 37.861166c-10.91086 0-19.757618 8.910088-19.757618 19.902524v43.855966c0 10.991363 8.846759 19.902524 19.757618 19.902524h43.320353c10.911933 0 19.757618-8.910088 19.757618-19.902524v-43.855966c0-10.991363-8.845686-19.902524-19.757618-19.902524H343.802096z m209.031246-375.457007c-10.913006 0-19.758692 8.910088-19.758692 19.902524v213.618852c0 10.992436 8.845686 19.902524 19.758692 19.902524h211.408771c10.911933 0 19.757618-8.910088 19.757619-19.902524V259.902792c0-10.992436-8.844612-19.902524-19.757619-19.902524H552.833342z m46.556578 47.020277h118.294541c10.913006 0 19.757618 8.911161 19.757619 19.902524v119.578298c0 10.991363-8.844612 19.902524-19.757619 19.902524H599.38992c-10.911933 0-19.757618-8.911161-19.757618-19.902524V306.923069c0-10.991363 8.845686-19.902524 19.757618-19.902524z m37.487631 37.861166c-10.911933 0-19.757618 8.910088-19.757618 19.902524v43.855966c0 10.991363 8.845686 19.902524 19.757618 19.902524H680.197904c10.91086 0 19.757618-8.910088 19.757618-19.902524v-43.855966c0-10.991363-8.846759-19.902524-19.757618-19.902524H636.876478z m-84.045283 206.356394c-13.170314 0-19.757618 6.634532-19.757618 19.903597v20.56587c0 13.267992 6.586231 19.902524 19.758692 19.902524h20.415597c13.172461 0 19.758692-6.634532 19.758692-19.902524v-20.56587c0-13.269065-6.586231-19.902524-19.758692-19.902524h-20.415597z m190.993174 0c-13.171388 0-19.757618 6.634532-19.757618 19.903597v20.56587c0 13.267992 6.586231 19.902524 19.757618 19.902524H764.243187c13.172461 0 19.757618-6.634532 19.757618-19.902524v-20.56587c0-13.269065-6.585157-19.902524-19.757618-19.902524h-20.415598z m-190.9921 192.391782c-13.172461 0-19.758692 6.633459-19.758692 19.901451v20.56587c0 13.269065 6.586231 19.902524 19.758692 19.902524h20.415597c13.172461 0 19.758692-6.633459 19.758692-19.902524v-20.56587c0-13.266918-6.586231-19.902524-19.758692-19.902525h-20.415597z m59.931907-132.019791c-13.172461 0-19.757618 6.633459-19.757618 19.902525v92.213668c0 13.269065 6.585157 19.902524 19.757618 19.902524h20.415598c13.172461 0 19.758692-6.633459 19.758692-19.90145V611.512621c0-13.269065-6.586231-19.902524-19.757619-19.902525h-20.416671zM743.158876 783.993291c0.220042 0.00322 0.442231 0.005367 0.666566 0.005367H764.243187c13.172461 0 19.757618-6.633459 19.757618-19.902524v-92.213669c0-13.269065-6.585157-19.902524-19.757618-19.902524h-20.415598c-13.172461 0-19.758692 6.633459-19.758692 19.901451v51.747421h-55.182222c-8.807044 0-15.946063 8.909015-15.946063 19.901451v20.56587c0 10.992436 7.139019 19.902524 15.946063 19.902524h73.884713c0.129878 0 0.259757-0.002147 0.388562-0.005367z" fill="#51bc81" p-id="1465"></path></svg>